<?xml version="1.0" encoding="utf-8"?>
<!-- Generator: Adobe Illustrator 24.2.3, SVG Export Plug-In . SVG Version: 6.00 Build 0)  -->
<svg version="1.1" id="Layer_1" xmlns="http://www.w3.org/2000/svg" xmlns:xlink="http://www.w3.org/1999/xlink" x="0px" y="0px"
	 viewBox="0 0 304.22 146.08" style="enable-background:new 0 0 304.22 146.08;" xml:space="preserve">
<style type="text/css">
	.st0{fill:#FFFFFF;}
</style>
<g>
	<path class="st0" d="M117.62,40.09c-3.2-0.29-5.66,0.61-7.16,2.07c-1.75,1.56-2.69,3.91-2.69,6.46v14.66h-1.79V39.01h1.79v4.05
		c0.42-0.8,0.95-1.56,1.61-2.17c2.12-1.88,4.95-2.78,8.25-2.4V40.09z"/>
	<path class="st0" d="M123.42,34.91h-1.74v-4.34h1.74V34.91z M123.42,63.28h-1.74V39.01h1.74V63.28z"/>
	<path class="st0" d="M143.25,63.84c-4.47,0-8.34-2.59-10.37-6.41v16.22h-1.74V39.01h1.74v5.89c2.03-3.86,5.89-6.5,10.37-6.5
		c6.7,0,12.16,5.75,12.16,12.82C155.41,58.18,149.95,63.84,143.25,63.84z M143.25,40.18c-5.7,0-10.37,4.95-10.37,11.03
		c0,5.98,4.67,10.88,10.37,10.88c5.75,0,10.37-4.9,10.37-10.88C153.62,45.13,149.01,40.18,143.25,40.18z"/>
	<path class="st0" d="M172.19,63.84c-4.48,0-8.34-2.59-10.37-6.41v5.85h-1.74V28.21h1.74V44.9c2.03-3.86,5.89-6.5,10.37-6.5
		c6.69,0,12.16,5.75,12.16,12.82C184.35,58.18,178.88,63.84,172.19,63.84z M172.19,40.18c-5.7,0-10.37,4.95-10.37,11.03
		c0,5.98,4.67,10.88,10.37,10.88c5.75,0,10.37-4.9,10.37-10.88C182.56,45.13,177.94,40.18,172.19,40.18z"/>
	<path class="st0" d="M206.97,63.28c-0.42-0.9-0.66-2.03-0.66-3.54v-0.47c-1.93,2.73-5.65,4.43-10.46,4.43
		c-4.25,0-8.81-2.12-8.81-6.79c0-5.51,5.14-6.79,10.32-7.26c5.37-0.52,8.95-1.08,8.95-4.05c0-4.48-4.24-5.51-7.82-5.51
		c-4.43,0-7.35,1.84-8.39,5.14h-1.79c1.08-4.34,4.71-6.83,10.18-6.83c6.08,0,9.57,2.64,9.57,7.21v13.71c0,1.22,0.33,3.01,0.71,3.96
		H206.97z M206.31,48.9c-1.89,1.74-5.42,2.07-8.77,2.36c-6.22,0.61-8.63,2.26-8.63,5.61c0,4.01,4.53,5.09,6.93,5.09
		c5.23,0,10.46-2.36,10.46-7.5V48.9z"/>
	<path class="st0" d="M235.2,63.28h-1.75V48.62c0-5.33-2.88-8.53-8.2-8.53c-4.9,0-8.72,3.63-8.72,8.53v14.66h-1.75V39.01h1.75v4.1
		c1.74-2.87,4.9-4.71,8.77-4.71c6.22,0,9.89,3.91,9.89,10.22V63.28z"/>
	<path class="st0" d="M264.08,62.62c0,7.49-4.81,12.54-11.97,12.54c-5.7,0-9.85-2.97-11.31-7.97h1.84c1.36,3.91,4.81,6.22,9.47,6.22
		c6.22,0,10.22-4.24,10.22-10.79v-5c-1.93,3.77-5.7,6.27-10.31,6.27c-6.7,0-12.12-5.71-12.12-12.68c0-7.07,5.42-12.82,12.12-12.82
		c4.61,0,8.38,2.5,10.31,6.31v-5.7h1.75V62.62z M252.02,40.18c-5.75,0-10.37,4.95-10.37,11.03c0,5.98,4.62,10.88,10.37,10.88
		c5.98,0,10.31-4.57,10.31-10.88C262.34,44.8,258.01,40.18,252.02,40.18z"/>
	<path class="st0" d="M123.37,105.04c-1.74,1.79-4.62,2.83-8.01,2.83c-6.13,0-10.46-2.69-11.26-7.63h1.75
		c0.84,3.91,4.33,5.98,9.47,5.98c2.92,0,5.37-0.94,6.79-2.4c0.85-0.9,1.27-2.07,1.18-3.35c-0.09-2.97-2.5-4.48-8.44-5.33
		c-4.2-0.61-9.38-1.32-9.47-6.13c0-3.3,3.11-6.6,9.19-6.6c5.37,0,8.91,2.4,9.95,6.79h-1.79c-0.99-3.25-3.77-5.14-8.11-5.14
		c-4.38,0-7.49,2.12-7.45,4.95c0.05,2.78,2.59,3.68,7.97,4.43c5.04,0.75,9.71,2.07,9.94,6.97
		C125.11,102.12,124.55,103.82,123.37,105.04z"/>
	<path class="st0" d="M132.91,98.92c0,4.15,1.93,6.97,6.55,6.78v1.6c-5.23,0.47-8.29-2.97-8.29-8.39V84.78h-3.3v-1.74h3.3v-5.19
		h1.74v5.19h6.55v1.74h-6.55V98.92z"/>
	<path class="st0" d="M165.62,107.31h-1.75v-4c-1.65,2.83-4.67,4.57-8.49,4.57c-5.88,0-10.17-4.29-10.17-10.18V83.04h1.74v14.66
		c0,4.9,3.59,8.43,8.43,8.43c4.95,0,8.49-3.53,8.49-8.43V83.04h1.75V107.31z"/>
	<path class="st0" d="M196.39,107.31h-1.75v-5.84c-1.97,3.82-5.84,6.41-10.36,6.41c-6.69,0-12.11-5.65-12.11-12.63
		c0-7.07,5.42-12.82,12.11-12.82c4.52,0,8.39,2.64,10.36,6.5V72.24h1.75V107.31z M184.28,84.21c-5.7,0-10.37,4.95-10.37,11.03
		c0,5.99,4.66,10.89,10.37,10.89c5.71,0,10.36-4.9,10.36-10.89C194.64,89.16,189.99,84.21,184.28,84.21z"/>
	<path class="st0" d="M207.04,78.93h-1.75V74.6h1.75V78.93z M207.04,107.31h-1.75V83.04h1.75V107.31z"/>
	<path class="st0" d="M238.1,95.24c0,6.98-5.47,12.63-12.16,12.63c-6.65,0-12.11-5.65-12.11-12.63c0-7.07,5.46-12.82,12.11-12.82
		C232.63,82.42,238.1,88.17,238.1,95.24z M236.3,95.24c0-6.17-4.61-11.17-10.36-11.17c-5.71,0-10.37,5-10.37,11.17
		c0,6.03,4.66,10.98,10.37,10.98C231.69,106.22,236.3,101.27,236.3,95.24z"/>
	<path class="st0" d="M261.57,105.04c-1.75,1.79-4.62,2.83-8.01,2.83c-6.12,0-10.46-2.69-11.26-7.63h1.75
		c0.85,3.91,4.34,5.98,9.48,5.98c2.92,0,5.37-0.94,6.79-2.4c0.85-0.9,1.27-2.07,1.18-3.35c-0.09-2.97-2.5-4.48-8.44-5.33
		c-4.19-0.61-9.37-1.32-9.48-6.13c0-3.3,3.12-6.6,9.19-6.6c5.37,0,8.91,2.4,9.94,6.79h-1.79c-0.99-3.25-3.77-5.14-8.11-5.14
		c-4.38,0-7.49,2.12-7.44,4.95c0.04,2.78,2.59,3.68,7.97,4.43c5.04,0.75,9.71,2.07,9.94,6.97
		C263.31,102.12,262.74,103.82,261.57,105.04z"/>
</g>
<path class="st0" d="M83.07,35.13h-5.08l-9.55,18.53l11.1-1.85L46.24,105l9.71-33.3l-9.71,2.77l9.99-39.35H38.49
	c-6.85,0-12.41,5.63-12.41,12.57v47.58c0,6.94,5.56,12.57,12.41,12.57h44.57c6.86,0,12.41-5.63,12.41-12.57V47.69
	C95.48,40.75,89.92,35.13,83.07,35.13z"/>
</svg>
